<?xml version="1.0" encoding="UTF-8"?>
<svg xmlns="http://www.w3.org/2000/svg" xmlns:xlink="http://www.w3.org/1999/xlink" width="16" height="auto" viewBox="0 0 320 239.15" version="1.1">
<defs>
<clipPath id="clip1">
  <path d="M 0 0 L 320 0 L 320 239.148438 L 0 239.148438 Z M 0 0 "/>
</clipPath>
</defs>
<g id="surface1">
<g clip-path="url(#clip1)" clip-rule="nonzero">
<path style=" stroke:none;fill-rule:nonzero;fill:rgb(0%,0%,0%);fill-opacity:1;" d="M 186.191406 111.5625 L 183.820313 111.5625 L 183.820313 124.90625 L 186.082031 124.90625 L 186.082031 116.167969 L 190.972656 124.90625 L 193.417969 124.90625 L 193.417969 111.5625 L 191.15625 111.5625 L 191.15625 120.5 Z M 181.460938 111.5625 L 179.019531 111.5625 L 179.019531 124.90625 L 181.460938 124.90625 Z M 5.976563 114.671875 L 7.65625 119.617188 L 4.339844 119.617188 Z M 3.59375 121.878906 L 8.441406 121.878906 L 9.492188 124.90625 L 12.15625 124.90625 L 7.308594 111.5625 L 4.707031 111.5625 L 0 124.90625 L 2.59375 124.90625 Z M 40.425781 114.671875 L 42.101563 119.617188 L 38.789063 119.617188 Z M 38.042969 121.878906 L 42.890625 121.878906 L 43.941406 124.90625 L 46.601563 124.90625 L 41.753906 111.5625 L 39.152344 111.5625 L 34.445313 124.90625 L 37.039063 124.90625 Z M 162.984375 124.90625 L 162.984375 113.820313 L 166.566406 113.820313 L 166.566406 111.5625 L 156.949219 111.5625 L 156.949219 113.820313 L 160.542969 113.820313 L 160.542969 124.90625 Z M 30.136719 121.433594 L 27.070313 111.5625 L 24.421875 111.5625 L 28.753906 124.90625 L 31.375 124.90625 L 35.691406 111.5625 L 33.097656 111.5625 Z M 50.285156 111.5625 L 47.917969 111.5625 L 47.917969 124.90625 L 50.179688 124.90625 L 50.179688 116.167969 L 55.070313 124.90625 L 57.511719 124.90625 L 57.511719 111.5625 L 55.25 111.5625 L 55.25 120.5 Z M 20.8125 120.679688 C 20.648438 121.277344 20.433594 121.703125 20.167969 121.964844 C 19.910156 122.226563 19.578125 122.410156 19.183594 122.519531 C 18.878906 122.605469 18.386719 122.644531 17.707031 122.644531 L 15.878906 122.644531 L 15.878906 113.820313 L 16.976563 113.820313 C 17.976563 113.820313 18.644531 113.863281 18.984375 113.949219 C 19.441406 114.054688 19.820313 114.265625 20.117188 114.574219 C 20.414063 114.882813 20.648438 115.3125 20.8125 115.863281 C 20.976563 116.417969 21.058594 117.207031 21.058594 118.238281 C 21.058594 119.269531 20.976563 120.082031 20.8125 120.679688 M 20.199219 111.816406 C 19.671875 111.648438 18.90625 111.5625 17.898438 111.5625 L 13.4375 111.5625 L 13.4375 124.90625 L 18.03125 124.90625 C 18.929688 124.90625 19.652344 124.8125 20.191406 124.625 C 20.910156 124.367188 21.484375 124.011719 21.90625 123.558594 C 22.46875 122.960938 22.898438 122.171875 23.207031 121.199219 C 23.449219 120.40625 23.574219 119.460938 23.574219 118.359375 C 23.574219 117.109375 23.441406 116.058594 23.175781 115.207031 C 22.914063 114.355469 22.527344 113.632813 22.023438 113.046875 C 21.519531 112.457031 20.90625 112.046875 20.199219 111.816406 M 201.832031 120.664063 L 199.644531 111.5625 L 195.980469 111.5625 L 195.980469 124.90625 L 198.242188 124.90625 L 198.246094 114.402344 L 200.640625 124.90625 L 202.996094 124.90625 L 205.390625 114.402344 L 205.398438 124.90625 L 207.660156 124.90625 L 207.660156 111.5625 L 203.988281 111.5625 Z M 219.292969 122.644531 L 212.539063 122.644531 L 212.539063 119.035156 L 218.605469 119.035156 L 218.605469 116.777344 L 212.539063 116.777344 L 212.539063 113.820313 L 219.0625 113.820313 L 219.0625 111.5625 L 210.097656 111.5625 L 210.097656 124.90625 L 219.292969 124.90625 Z M 114.070313 116.167969 L 118.960938 124.90625 L 121.40625 124.90625 L 121.40625 111.5625 L 119.140625 111.5625 L 119.140625 120.5 L 114.175781 111.5625 L 111.808594 111.5625 L 111.808594 124.90625 L 114.070313 124.90625 Z M 143.289063 113.820313 L 143.289063 111.5625 L 134.324219 111.5625 L 134.324219 124.90625 L 143.519531 124.90625 L 143.519531 122.644531 L 136.769531 122.644531 L 136.769531 119.035156 L 142.832031 119.035156 L 142.832031 116.777344 L 136.769531 116.777344 L 136.769531 113.820313 Z M 129.164063 124.90625 L 129.164063 113.820313 L 132.746094 113.820313 L 132.746094 111.5625 L 123.132813 111.5625 L 123.132813 113.820313 L 126.722656 113.820313 L 126.722656 124.90625 Z M 152.734375 116.480469 C 152.570313 116.746094 152.339844 116.9375 152.050781 117.046875 C 151.757813 117.15625 151.027344 117.210938 149.855469 117.210938 L 148.046875 117.210938 L 148.046875 113.820313 L 149.953125 113.820313 C 150.941406 113.820313 151.539063 113.835938 151.738281 113.863281 C 152.132813 113.9375 152.4375 114.113281 152.652344 114.390625 C 152.875 114.664063 152.984375 115.03125 152.984375 115.476563 C 152.984375 115.878906 152.898438 116.210938 152.734375 116.480469 M 155.496094 115.304688 C 155.496094 114.515625 155.320313 113.8125 154.96875 113.199219 C 154.617188 112.585938 154.148438 112.160156 153.5625 111.921875 C 152.976563 111.679688 152.035156 111.5625 150.742188 111.5625 L 145.605469 111.5625 L 145.605469 124.90625 L 148.046875 124.90625 L 148.046875 119.339844 L 148.539063 119.339844 C 149.105469 119.339844 149.511719 119.390625 149.773438 119.488281 C 150.03125 119.589844 150.277344 119.773438 150.507813 120.042969 C 150.738281 120.316406 151.167969 120.964844 151.796875 122 L 153.558594 124.90625 L 156.480469 124.90625 L 155.003906 122.304688 C 154.421875 121.269531 153.957031 120.546875 153.613281 120.140625 C 153.269531 119.734375 152.835938 119.359375 152.304688 119.019531 C 153.367188 118.851563 154.164063 118.4375 154.699219 117.785156 C 155.230469 117.132813 155.496094 116.308594 155.496094 115.304688 M 171.632813 114.671875 L 173.308594 119.617188 L 169.992188 119.617188 Z M 169.246094 121.878906 L 174.097656 121.878906 L 175.148438 124.90625 L 177.808594 124.90625 L 172.960938 111.5625 L 170.359375 111.5625 L 165.65625 124.90625 L 168.246094 124.90625 Z M 223.769531 111.5625 L 221.398438 111.5625 L 221.398438 124.90625 L 223.65625 124.90625 L 223.65625 116.167969 L 228.550781 124.90625 L 230.992188 124.90625 L 230.992188 111.5625 L 228.734375 111.5625 L 228.734375 120.5 Z M 238.753906 124.90625 L 238.753906 113.820313 L 242.339844 113.820313 L 242.339844 111.5625 L 232.722656 111.5625 L 232.722656 113.820313 L 236.316406 113.820313 L 236.316406 124.90625 Z M 265.503906 124.90625 L 265.503906 119.308594 L 269.960938 111.5625 L 267.144531 111.5625 L 264.355469 116.847656 L 261.496094 111.5625 L 258.628906 111.5625 L 263.0625 119.289063 L 263.0625 124.90625 Z M 253.011719 122.867188 C 252.269531 122.867188 251.675781 122.660156 251.238281 122.246094 C 250.804688 121.835938 250.511719 121.1875 250.367188 120.304688 L 247.988281 120.5625 C 248.148438 122.054688 248.640625 123.191406 249.460938 123.96875 C 250.28125 124.75 251.453125 125.136719 252.984375 125.136719 C 254.035156 125.136719 254.914063 124.976563 255.617188 124.652344 C 256.324219 124.328125 256.867188 123.832031 257.253906 123.164063 C 257.636719 122.496094 257.832031 121.78125 257.832031 121.019531 C 257.832031 120.175781 257.667969 119.46875 257.347656 118.894531 C 257.027344 118.320313 256.578125 117.867188 256.011719 117.539063 C 255.441406 117.207031 254.558594 116.886719 253.371094 116.578125 C 252.179688 116.269531 251.433594 115.972656 251.121094 115.6875 C 250.882813 115.464844 250.761719 115.191406 250.761719 114.875 C 250.761719 114.53125 250.890625 114.253906 251.148438 114.046875 C 251.550781 113.722656 252.105469 113.5625 252.820313 113.5625 C 253.507813 113.5625 254.023438 113.714844 254.367188 114.015625 C 254.710938 114.316406 254.933594 114.808594 255.039063 115.496094 L 257.484375 115.378906 C 257.441406 114.15625 257.039063 113.175781 256.273438 112.441406 C 255.503906 111.707031 254.363281 111.339844 252.84375 111.339844 C 251.910156 111.339844 251.121094 111.496094 250.460938 111.804688 C 249.800781 112.113281 249.296875 112.5625 248.949219 113.15625 C 248.601563 113.742188 248.425781 114.378906 248.425781 115.058594 C 248.425781 116.113281 248.796875 117.007813 249.539063 117.742188 C 250.070313 118.265625 250.988281 118.703125 252.300781 119.0625 C 253.320313 119.339844 253.972656 119.53125 254.257813 119.644531 C 254.675781 119.808594 254.96875 120 255.140625 120.222656 C 255.304688 120.441406 255.390625 120.710938 255.390625 121.027344 C 255.390625 121.519531 255.191406 121.949219 254.789063 122.320313 C 254.390625 122.683594 253.796875 122.867188 253.011719 122.867188 M 275.570313 122.867188 C 274.824219 122.867188 274.234375 122.660156 273.796875 122.246094 C 273.363281 121.835938 273.066406 121.1875 272.925781 120.304688 L 270.546875 120.5625 C 270.707031 122.054688 271.199219 123.191406 272.019531 123.96875 C 272.839844 124.75 274.011719 125.136719 275.542969 125.136719 C 276.59375 125.136719 277.472656 124.976563 278.175781 124.652344 C 278.882813 124.328125 279.425781 123.832031 279.8125 123.164063 C 280.195313 122.496094 280.390625 121.78125 280.390625 121.019531 C 280.390625 120.175781 280.226563 119.46875 279.90625 118.894531 C 279.582031 118.320313 279.136719 117.867188 278.570313 117.539063 C 277.996094 117.207031 277.117188 116.886719 275.929688 116.578125 C 274.738281 116.269531 273.988281 115.972656 273.679688 115.6875 C 273.441406 115.464844 273.320313 115.191406 273.320313 114.875 C 273.320313 114.53125 273.445313 114.253906 273.707031 114.046875 C 274.109375 113.722656 274.664063 113.5625 275.375 113.5625 C 276.0625 113.5625 276.582031 113.714844 276.925781 114.015625 C 277.269531 114.316406 277.492188 114.808594 277.597656 115.496094 L 280.039063 115.378906 C 280 114.15625 279.597656 113.175781 278.832031 112.441406 C 278.0625 111.707031 276.917969 111.339844 275.398438 111.339844 C 274.46875 111.339844 273.675781 111.496094 273.019531 111.804688 C 272.359375 112.113281 271.855469 112.5625 271.507813 113.15625 C 271.15625 113.742188 270.984375 114.378906 270.984375 115.058594 C 270.984375 116.113281 271.355469 117.007813 272.097656 117.742188 C 272.625 118.265625 273.546875 118.703125 274.855469 119.0625 C 275.875 119.339844 276.53125 119.53125 276.816406 119.644531 C 277.234375 119.808594 277.527344 120 277.695313 120.222656 C 277.863281 120.441406 277.949219 120.710938 277.949219 121.027344 C 277.949219 121.519531 277.746094 121.949219 277.347656 122.320313 C 276.945313 122.683594 276.355469 122.867188 275.570313 122.867188 M 287.617188 124.90625 L 287.617188 113.820313 L 291.199219 113.820313 L 291.199219 111.5625 L 281.585938 111.5625 L 281.585938 113.820313 L 285.175781 113.820313 L 285.175781 124.90625 Z M 307.691406 111.5625 L 304.027344 111.5625 L 304.027344 124.90625 L 306.289063 124.90625 L 306.296875 114.402344 L 308.6875 124.90625 L 311.039063 124.90625 L 313.441406 114.402344 L 313.445313 124.90625 L 315.703125 124.90625 L 315.703125 111.5625 L 312.035156 111.5625 L 309.875 120.664063 Z M 301.742188 113.820313 L 301.742188 111.5625 L 292.78125 111.5625 L 292.78125 124.90625 L 301.976563 124.90625 L 301.976563 122.644531 L 295.222656 122.644531 L 295.222656 119.035156 L 301.289063 119.035156 L 301.289063 116.777344 L 295.222656 116.777344 L 295.222656 113.820313 Z M 90.960938 120.679688 C 90.792969 121.277344 90.582031 121.703125 90.320313 121.964844 C 90.054688 122.226563 89.726563 122.410156 89.332031 122.519531 C 89.027344 122.605469 88.535156 122.644531 87.855469 122.644531 L 86.027344 122.644531 L 86.027344 113.820313 L 87.125 113.820313 C 88.121094 113.820313 88.789063 113.863281 89.132813 113.949219 C 89.589844 114.054688 89.96875 114.265625 90.265625 114.574219 C 90.558594 114.882813 90.792969 115.3125 90.960938 115.863281 C 91.125 116.417969 91.207031 117.207031 91.207031 118.238281 C 91.207031 119.269531 91.125 120.082031 90.960938 120.679688 M 90.351563 111.816406 C 89.820313 111.648438 89.054688 111.5625 88.046875 111.5625 L 83.589844 111.5625 L 83.589844 124.90625 L 88.179688 124.90625 C 89.082031 124.90625 89.800781 124.8125 90.34375 124.625 C 91.0625 124.367188 91.632813 124.011719 92.058594 123.558594 C 92.617188 122.960938 93.046875 122.171875 93.351563 121.199219 C 93.597656 120.40625 93.722656 119.460938 93.722656 118.359375 C 93.722656 117.109375 93.589844 116.058594 93.328125 115.207031 C 93.0625 114.355469 92.679688 113.632813 92.171875 113.046875 C 91.664063 112.457031 91.054688 112.046875 90.351563 111.816406 M 109.46875 113.820313 L 109.46875 111.5625 L 100.507813 111.5625 L 100.507813 124.90625 L 109.703125 124.90625 L 109.703125 122.644531 L 102.945313 122.644531 L 102.945313 119.035156 L 109.011719 119.035156 L 109.011719 116.777344 L 102.945313 116.777344 L 102.945313 113.820313 Z M 65.210938 113.648438 C 65.859375 113.648438 66.410156 113.847656 66.863281 114.246094 C 67.316406 114.644531 67.617188 115.191406 67.761719 115.882813 L 70.175781 115.238281 C 69.90625 114.175781 69.492188 113.355469 68.941406 112.785156 C 68.015625 111.820313 66.8125 111.339844 65.332031 111.339844 C 63.640625 111.339844 62.273438 111.953125 61.234375 113.183594 C 60.191406 114.410156 59.671875 116.136719 59.671875 118.359375 C 59.671875 120.457031 60.191406 122.113281 61.226563 123.324219 C 62.257813 124.53125 63.582031 125.136719 65.1875 125.136719 C 66.484375 125.136719 67.554688 124.785156 68.402344 124.074219 C 69.242188 123.367188 69.847656 122.277344 70.210938 120.816406 L 67.84375 119.992188 C 67.640625 120.972656 67.304688 121.691406 66.835938 122.148438 C 66.371094 122.605469 65.808594 122.832031 65.164063 122.832031 C 64.28125 122.832031 63.5625 122.476563 63.015625 121.761719 C 62.464844 121.042969 62.191406 119.84375 62.191406 118.15625 C 62.191406 116.570313 62.46875 115.417969 63.027344 114.710938 C 63.585938 114 64.3125 113.648438 65.210938 113.648438 M 81.28125 113.820313 L 81.28125 111.5625 L 72.320313 111.5625 L 72.320313 124.90625 L 81.515625 124.90625 L 81.515625 122.644531 L 74.761719 122.644531 L 74.761719 119.035156 L 80.828125 119.035156 L 80.828125 116.777344 L 74.761719 116.777344 L 74.761719 113.820313 Z M 58.59375 195.472656 L 61.128906 195.472656 C 63.492188 195.472656 67.542969 195.960938 69.207031 196.9375 C 70.875 197.910156 71.972656 198.996094 72.503906 200.203125 C 73.035156 201.40625 73.304688 204.0625 73.304688 208.164063 L 73.304688 224.273438 C 73.304688 229.132813 68.167969 231.609375 65.691406 232.148438 C 63.210938 232.683594 60.796875 232.953125 58.441406 232.953125 C 51.660156 232.953125 45.808594 231.1875 40.875 227.660156 C 35.945313 224.125 32.375 218.601563 30.164063 211.078125 C 27.953125 203.558594 26.847656 194.808594 26.847656 184.832031 C 26.847656 176.59375 27.859375 168.558594 29.882813 160.734375 C 31.90625 152.902344 35.351563 146.800781 40.21875 142.425781 C 45.082031 138.054688 51.179688 135.863281 58.503906 135.863281 C 66.167969 135.863281 70.648438 137.804688 76.292969 143.664063 C 82.0625 149.65625 87.59375 156.460938 90.824219 166.457031 L 95.539063 166.457031 L 95.539063 129.765625 L 92.859375 129.765625 C 91.890625 132.703125 90.835938 134.699219 89.679688 135.753906 C 88.519531 136.8125 87.265625 137.339844 85.917969 137.339844 C 85.050781 137.339844 82.238281 136.382813 77.496094 134.472656 C 72.75 132.558594 69.316406 131.398438 67.199219 130.988281 C 63.292969 130.175781 60.261719 129.765625 55.398438 129.765625 C 39.691406 129.765625 26.65625 135.164063 16.292969 145.960938 C 5.933594 156.757813 0.757813 169.984375 0.757813 185.644531 C 0.757813 194.394531 2.441406 202.300781 5.8125 209.359375 C 8.464844 214.835938 12.140625 219.757813 16.835938 224.136719 C 21.535156 228.511719 26.957031 232.042969 33.101563 234.730469 C 39.246094 237.410156 46.96875 238.753906 56.269531 238.753906 C 63.546875 238.753906 70.570313 238.003906 77.339844 236.5 C 84.113281 234.992188 90.628906 232.761719 96.898438 229.804688 L 96.898438 208.164063 C 96.898438 204.371094 97.109375 201.984375 97.542969 201.015625 C 98.3125 199.167969 99.40625 197.847656 100.828125 197.050781 C 102.246094 196.253906 106.117188 195.734375 109.726563 195.472656 L 109.726563 191.929688 L 58.59375 191.929688 Z M 189.269531 223.59375 C 183.441406 228.054688 175.6875 230.285156 166.019531 230.285156 L 160.503906 230.285156 C 157.550781 230.285156 155.414063 229.882813 154.089844 229.070313 C 152.769531 228.257813 151.863281 227.21875 151.382813 225.949219 C 150.898438 224.679688 150.652344 221.207031 150.652344 215.523438 L 150.652344 186.457031 C 155.621094 186.457031 161.445313 187.101563 164.054688 188.402344 C 166.660156 189.695313 168.953125 192.222656 170.921875 195.984375 C 172.894531 199.746094 174.1875 203.898438 174.800781 209.789063 L 178.996094 209.789063 L 178.996094 156.289063 L 174.800781 156.289063 C 173.984375 164.328125 172.089844 169.722656 169.117188 173.839844 C 166.152344 177.957031 161.363281 180.015625 154.761719 180.015625 L 150.652344 180.015625 L 150.652344 144.132813 C 150.617188 137.894531 156.179688 138.617188 156.179688 138.617188 L 162.675781 138.617188 C 170.53125 138.617188 175.886719 139.078125 178.742188 139.992188 C 183.636719 141.515625 187.421875 143.90625 190.101563 147.152344 C 192.78125 150.402344 194.855469 155.757813 196.339844 163.222656 L 199.851563 163.222656 L 199.851563 132.664063 L 112.476563 132.664063 L 112.476563 136.851563 L 115.234375 136.851563 C 118.589844 136.851563 121.242188 137.5625 123.171875 138.980469 C 124.546875 139.945313 125.488281 141.320313 125.996094 143.09375 C 126.253906 144.15625 126.382813 147.023438 126.382813 151.691406 L 126.382813 216.34375 C 126.382813 221.515625 126.101563 224.714844 125.539063 225.933594 C 124.828125 227.65625 123.808594 228.875 122.488281 229.582031 C 120.652344 230.652344 118.234375 231.183594 115.234375 231.183594 L 112.476563 231.183594 L 112.476563 236.042969 L 201.367188 236.042969 L 206.710938 203.171875 L 201.832031 203.171875 C 199.285156 212.324219 195.097656 219.132813 189.269531 223.59375 M 289.464844 213.78125 C 287.03125 220.980469 283.632813 226.222656 279.261719 229.496094 C 275.835938 232.0625 271.566406 233.339844 266.449219 233.339844 C 258.847656 233.339844 252.941406 230.367188 248.71875 224.421875 C 242.660156 215.917969 239.632813 202.777344 239.632813 184.992188 C 239.632813 170.03125 241.59375 158.554688 245.515625 150.5625 C 250.332031 140.824219 257.359375 135.957031 266.597656 135.957031 C 271.613281 135.957031 276.046875 137.367188 279.894531 140.1875 C 283.742188 143.003906 286.90625 147.835938 289.390625 154.671875 C 291.871094 161.515625 293.113281 171.828125 293.113281 185.609375 C 293.113281 197.191406 291.898438 206.582031 289.464844 213.78125 M 265.703125 131.035156 C 250.808594 130.417969 238.257813 135.273438 228.054688 145.609375 C 217.847656 155.933594 212.75 168.84375 212.75 184.324219 C 212.75 198.113281 216.667969 210.035156 224.519531 220.078125 C 234.445313 232.792969 248.5 239.148438 266.675781 239.148438 C 284.796875 239.148438 298.824219 232.484375 308.753906 219.15625 C 316.25 209.113281 320 197.472656 320 184.246094 C 320 168.765625 314.96875 155.871094 304.917969 145.566406 C 294.859375 135.261719 281.792969 130.417969 265.703125 131.035156 M 245.515625 19.582031 C 250.332031 9.847656 257.359375 4.980469 266.597656 4.980469 C 271.613281 4.980469 276.046875 6.386719 279.894531 9.207031 C 283.742188 12.023438 286.90625 16.855469 289.390625 23.691406 C 291.871094 30.535156 293.113281 40.847656 293.113281 54.628906 C 293.113281 66.210938 291.898438 75.605469 289.464844 82.800781 C 287.03125 90 283.632813 95.242188 279.261719 98.519531 C 275.835938 101.082031 271.566406 102.363281 266.449219 102.363281 C 258.847656 102.363281 252.941406 99.390625 248.71875 93.445313 C 242.660156 84.9375 239.632813 71.796875 239.632813 54.015625 C 239.632813 39.054688 241.59375 27.574219 245.515625 19.582031 M 266.675781 108.171875 C 284.796875 108.171875 298.824219 101.507813 308.753906 88.175781 C 316.25 78.132813 320 66.496094 320 53.265625 C 320 37.785156 314.96875 24.894531 304.917969 14.589844 C 294.859375 4.28125 281.792969 -0.558594 265.703125 0.0546875 C 250.808594 -0.558594 238.257813 4.296875 228.054688 14.628906 C 217.847656 24.953125 212.75 37.863281 212.75 53.34375 C 212.75 67.136719 216.667969 79.054688 224.519531 89.101563 C 234.445313 101.8125 248.5 108.171875 266.675781 108.171875 M 204.226563 71.96875 L 199.347656 71.96875 C 196.800781 81.121094 192.613281 87.929688 186.78125 92.386719 C 180.953125 96.851563 173.203125 99.078125 163.53125 99.078125 L 158.019531 99.078125 C 155.066406 99.078125 152.933594 98.675781 151.605469 97.863281 C 150.28125 97.050781 149.378906 96.011719 148.894531 94.742188 C 148.410156 93.472656 148.167969 90 148.167969 84.320313 L 148.167969 55.25 C 153.136719 55.25 158.957031 55.894531 161.570313 57.195313 C 164.179688 58.488281 166.46875 61.019531 168.4375 64.78125 C 170.410156 68.539063 171.703125 72.691406 172.320313 78.585938 L 176.511719 78.585938 L 176.511719 25.085938 L 172.320313 25.085938 C 171.496094 33.121094 169.605469 38.515625 166.632813 42.636719 C 163.667969 46.753906 158.878906 48.8125 152.277344 48.8125 L 148.167969 48.8125 L 148.167969 12.929688 C 148.132813 6.691406 153.699219 7.414063 153.699219 7.414063 L 160.1875 7.414063 C 168.046875 7.414063 173.402344 7.871094 176.257813 8.789063 C 181.15625 10.308594 184.941406 12.699219 187.617188 15.945313 C 190.296875 19.199219 192.375 24.554688 193.855469 32.015625 L 197.367188 32.015625 L 197.367188 1.433594 L 109.992188 1.433594 L 109.992188 5.648438 L 112.746094 5.648438 C 116.105469 5.648438 118.753906 6.359375 120.6875 7.777344 C 122.0625 8.738281 123.003906 10.113281 123.511719 11.890625 C 123.769531 12.949219 123.898438 15.816406 123.898438 20.484375 L 123.898438 85.140625 C 123.898438 90.3125 123.617188 93.511719 123.054688 94.726563 C 122.34375 96.449219 121.324219 97.671875 120.003906 98.378906 C 118.171875 99.445313 115.753906 99.976563 112.746094 99.976563 L 109.992188 99.976563 L 109.992188 104.839844 L 198.882813 104.839844 Z M 36.429688 99.90625 L 34.070313 99.90625 C 30.683594 99.90625 27.679688 98.867188 25.050781 96.789063 C 22.429688 94.710938 21.113281 90.710938 21.113281 84.777344 L 21.113281 22.335938 L 88.753906 106.65625 L 93.140625 106.660156 L 93.140625 20.664063 C 93.140625 15.773438 93.542969 14.355469 94.351563 12.34375 C 95.160156 10.332031 96.285156 8.878906 97.726563 7.988281 C 99.167969 7.097656 102 6.371094 106.207031 5.8125 L 106.207031 1.433594 L 72.65625 1.433594 L 72.65625 5.8125 C 78.1875 5.710938 82.132813 7.136719 84.484375 10.089844 C 86.199219 12.28125 87.054688 14.449219 87.054688 20.664063 L 87.054688 65.703125 L 34.402344 1.433594 L 2.359375 1.433594 L 2.359375 4.90625 C 5.40625 5.007813 5.511719 6.027344 7.136719 6.890625 L 15.71875 15.527344 L 15.707031 84.777344 C 15.707031 90.253906 14.625 94.128906 12.464844 96.410156 C 10.300781 98.691406 6.46875 99.855469 0.972656 99.90625 L 0.972656 104.09375 L 36.429688 104.09375 "/>
</g>
</g>
</svg>
